<svg width="32" height="32" viewBox="0 0 32 32" fill="none" xmlns="http://www.w3.org/2000/svg">
<g clip-path="url(#clip0_4874_5649)">
<path d="M2 0V2H0V0H2ZM0.666667 1.33333H1.33333V0.666667H0.666667V1.33333Z" fill="#B6F4C9"/>
<path d="M2 30V32H0V30H2ZM0.666667 31.3333H1.33333V30.6667H0.666667V31.3333Z" fill="#B6F4C9"/>
<path d="M2 25V27H0V25H2ZM0.666667 26.3333H1.33333V25.6667H0.666667V26.3333Z" fill="#B6F4C9"/>
<path d="M2 20V22H0V20H2ZM0.666667 21.3333H1.33333V20.6667H0.666667V21.3333Z" fill="#B6F4C9"/>
<path d="M2 15V17H0V15H2ZM0.666667 16.3333H1.33333V15.6667H0.666667V16.3333Z" fill="#B6F4C9"/>
<path d="M2 10V12H0V10H2ZM0.666667 11.3333H1.33333V10.6667H0.666667V11.3333Z" fill="#B6F4C9"/>
<path d="M2 5V7H0V5H2ZM0.666667 6.33333H1.33333V5.66667H0.666667V6.33333Z" fill="#B6F4C9"/>
<path d="M7 0V2H5V0H7ZM5.66667 1.33333H6.33333V0.666667H5.66667V1.33333Z" fill="#B6F4C9"/>
<path d="M7 30V32H5V30H7ZM5.66667 31.3333H6.33333V30.6667H5.66667V31.3333Z" fill="#B6F4C9"/>
<path d="M7 25V27H5V25H7ZM5.66667 26.3333H6.33333V25.6667H5.66667V26.3333Z" fill="#B6F4C9"/>
<path d="M7 20V22H5V20H7ZM5.66667 21.3333H6.33333V20.6667H5.66667V21.3333Z" fill="#B6F4C9"/>
<path d="M7 15V17H5V15H7ZM5.66667 16.3333H6.33333V15.6667H5.66667V16.3333Z" fill="#B6F4C9"/>
<path d="M7 10V12H5V10H7ZM5.66667 11.3333H6.33333V10.6667H5.66667V11.3333Z" fill="#B6F4C9"/>
<path d="M7 5V7H5V5H7ZM5.66667 6.33333H6.33333V5.66667H5.66667V6.33333Z" fill="#B6F4C9"/>
<path d="M12 0V2H10V0H12ZM10.6667 1.33333H11.3333V0.666667H10.6667V1.33333Z" fill="#B6F4C9"/>
<path d="M12 30V32H10V30H12ZM10.6667 31.3333H11.3333V30.6667H10.6667V31.3333Z" fill="#B6F4C9"/>
<path d="M12 25V27H10V25H12ZM10.6667 26.3333H11.3333V25.6667H10.6667V26.3333Z" fill="#B6F4C9"/>
<path d="M12 20V22H10V20H12ZM10.6667 21.3333H11.3333V20.6667H10.6667V21.3333Z" fill="#B6F4C9"/>
<path d="M12 15V17H10V15H12ZM10.6667 16.3333H11.3333V15.6667H10.6667V16.3333Z" fill="#B6F4C9"/>
<path d="M12 10V12H10V10H12ZM10.6667 11.3333H11.3333V10.6667H10.6667V11.3333Z" fill="#B6F4C9"/>
<path d="M12 5V7H10V5H12ZM10.6667 6.33333H11.3333V5.66667H10.6667V6.33333Z" fill="#B6F4C9"/>
<path d="M17 0V2H15V0H17ZM15.6667 1.33333H16.3333V0.666667H15.6667V1.33333Z" fill="#B6F4C9"/>
<path d="M17 30V32H15V30H17ZM15.6667 31.3333H16.3333V30.6667H15.6667V31.3333Z" fill="#B6F4C9"/>
<path d="M17 25V27H15V25H17ZM15.6667 26.3333H16.3333V25.6667H15.6667V26.3333Z" fill="#B6F4C9"/>
<path d="M17 20V22H15V20H17ZM15.6667 21.3333H16.3333V20.6667H15.6667V21.3333Z" fill="#B6F4C9"/>
<path d="M17 15V17H15V15H17ZM15.6667 16.3333H16.3333V15.6667H15.6667V16.3333Z" fill="#B6F4C9"/>
<path d="M17 10V12H15V10H17ZM15.6667 11.3333H16.3333V10.6667H15.6667V11.3333Z" fill="#B6F4C9"/>
<path d="M17 5V7H15V5H17ZM15.6667 6.33333H16.3333V5.66667H15.6667V6.33333Z" fill="#B6F4C9"/>
<path d="M27 0V2H25V0H27ZM25.6667 1.33333H26.3333V0.666667H25.6667V1.33333Z" fill="#B6F4C9"/>
<path d="M27 30V32H25V30H27ZM25.6667 31.3333H26.3333V30.6667H25.6667V31.3333Z" fill="#B6F4C9"/>
<path d="M27 25V27H25V25H27ZM25.6667 26.3333H26.3333V25.6667H25.6667V26.3333Z" fill="#B6F4C9"/>
<path d="M27 20V22H25V20H27ZM25.6667 21.3333H26.3333V20.6667H25.6667V21.3333Z" fill="#B6F4C9"/>
<path d="M27 15V17H25V15H27ZM25.6667 16.3333H26.3333V15.6667H25.6667V16.3333Z" fill="#B6F4C9"/>
<path d="M27 10V12H25V10H27ZM25.6667 11.3333H26.3333V10.6667H25.6667V11.3333Z" fill="#B6F4C9"/>
<path d="M27 5V7H25V5H27ZM25.6667 6.33333H26.3333V5.66667H25.6667V6.33333Z" fill="#B6F4C9"/>
<path d="M32 0V2H30V0H32ZM30.6667 1.33333H31.3333V0.666667H30.6667V1.33333Z" fill="#B6F4C9"/>
<path d="M32 30V32H30V30H32ZM30.6667 31.3333H31.3333V30.6667H30.6667V31.3333Z" fill="#B6F4C9"/>
<path d="M32 25V27H30V25H32ZM30.6667 26.3333H31.3333V25.6667H30.6667V26.3333Z" fill="#B6F4C9"/>
<path d="M32 20V22H30V20H32ZM30.6667 21.3333H31.3333V20.6667H30.6667V21.3333Z" fill="#B6F4C9"/>
<path d="M32 15V17H30V15H32ZM30.6667 16.3333H31.3333V15.6667H30.6667V16.3333Z" fill="#B6F4C9"/>
<path d="M32 10V12H30V10H32ZM30.6667 11.3333H31.3333V10.6667H30.6667V11.3333Z" fill="#B6F4C9"/>
<path d="M32 5V7H30V5H32ZM30.6667 6.33333H31.3333V5.66667H30.6667V6.33333Z" fill="#B6F4C9"/>
<path d="M22 0V2H20V0H22ZM20.6667 1.33333H21.3333V0.666667H20.6667V1.33333Z" fill="#B6F4C9"/>
<path d="M22 30V32H20V30H22ZM20.6667 31.3333H21.3333V30.6667H20.6667V31.3333Z" fill="#B6F4C9"/>
<path d="M22 25V27H20V25H22ZM20.6667 26.3333H21.3333V25.6667H20.6667V26.3333Z" fill="#B6F4C9"/>
<path d="M22 20V22H20V20H22ZM20.6667 21.3333H21.3333V20.6667H20.6667V21.3333Z" fill="#B6F4C9"/>
<path d="M22 15V17H20V15H22ZM20.6667 16.3333H21.3333V15.6667H20.6667V16.3333Z" fill="#B6F4C9"/>
<path d="M22 10V12H20V10H22ZM20.6667 11.3333H21.3333V10.6667H20.6667V11.3333Z" fill="#B6F4C9"/>
<path d="M22 5V7H20V5H22ZM20.6667 6.33333H21.3333V5.66667H20.6667V6.33333Z" fill="#B6F4C9"/>
</g>
<defs>
<clipPath id="clip0_4874_5649">
<rect width="32" height="32" fill="white"/>
</clipPath>
</defs>
</svg>
