<svg width="1606" height="224" viewBox="0 0 1606 224" fill="none" xmlns="http://www.w3.org/2000/svg">
<path d="M1567.4 201.801H1557.46V223.204H1550.96V201.801H1541.03V195.304H1567.4V201.801Z" fill="#121010"/>
<path d="M1588.04 214.357L1598.74 195.304H1606V223.204H1598.74V208.233L1590.33 223.204H1585.74L1577.34 208.233V223.204H1570.07V195.304H1577.34L1588.04 214.357Z" fill="#121010"/>
<path fill-rule="evenodd" clip-rule="evenodd" d="M151.461 0C216.678 0.000585954 263.063 44.4875 263.063 107.016V116.188C263.063 178.717 216.678 223.204 151.461 223.204H0V0H151.461ZM52.1194 170.989H149.634C184.6 170.989 210.35 149.036 210.35 116.188V107.016C210.349 74.1686 184.599 52.6152 149.634 52.6151H52.1194V170.989Z" fill="#121010"/>
<path d="M339.393 223.204H287.414V0H339.393V223.204Z" fill="#121010"/>
<path d="M525.906 186.513C525.906 206.777 509.479 223.204 489.215 223.204H366.911V171.225H473.927V0H525.906V186.513Z" fill="#121010"/>
<path d="M605.403 223.204H553.424V0H605.403V223.204Z" fill="#121010"/>
<path d="M843.895 51.9791H764.398V223.204H712.419V51.9791H632.921V0H843.895V51.9791Z" fill="#121010"/>
<path fill-rule="evenodd" clip-rule="evenodd" d="M1030.41 223.204H978.429V171.225H882.262L853.068 223.204H794.974L920.335 0H1030.41V223.204ZM911.455 119.246H978.429V51.9791H949.236L911.455 119.246Z" fill="#121010"/>
<path d="M1109.91 171.225H1216.92V223.204H1057.93V0H1109.91V171.225Z" fill="#121010"/>
<path d="M1296.42 171.225H1403.43V223.204H1244.44V0H1296.42V171.225Z" fill="#121010"/>
<path d="M1498.22 87.1055L1547.14 0H1605.24L1479.87 223.204H1421.78L1469.17 138.822L1391.2 0H1449.3L1498.22 87.1055Z" fill="#121010"/>
</svg>
