<svg width="24" height="24" viewBox="0 0 24 24" fill="none" xmlns="http://www.w3.org/2000/svg">
<path fill-rule="evenodd" clip-rule="evenodd" d="M2.66667 24H21.3333C22.8061 24 24 22.8061 24 21.3333V2.66667C24 1.19391 22.8061 0 21.3333 0H2.66667C1.19391 0 0 1.19391 0 2.66667V21.3333C0 22.8061 1.19391 24 2.66667 24Z" fill="#121010"/>
<path fill-rule="evenodd" clip-rule="evenodd" d="M20.6669 20.6668H17.1054V14.6009C17.1054 12.9377 16.4735 12.0083 15.1571 12.0083C13.7251 12.0083 12.9769 12.9755 12.9769 14.6009V20.6668H9.54468V9.11127H12.9769V10.6678C12.9769 10.6678 14.0089 8.75823 16.4611 8.75823C18.9121 8.75823 20.6669 10.255 20.6669 13.3506V20.6668ZM5.45001 7.59817C4.28092 7.59817 3.33356 6.64338 3.33356 5.46583C3.33356 4.28828 4.28092 3.3335 5.45001 3.3335C6.61911 3.3335 7.5659 4.28828 7.5659 5.46583C7.5659 6.64338 6.61911 7.59817 5.45001 7.59817ZM3.67775 20.6668H7.2567V9.11127H3.67775V20.6668Z" fill="#FDFEFF"/>
</svg>
