<?xml version="1.0" encoding="UTF-8"?>
<svg id="Layer_1" xmlns="http://www.w3.org/2000/svg" version="1.1" viewBox="0 0 115.9 40.3">
  <!-- Generator: Adobe Illustrator 30.5.1, SVG Export Plug-In . SVG Version: 2.1.4 Build 3)  -->
  <defs>
    <style>
      .st0 {
        fill: #121010;
      }
    </style>
  </defs>
  <path class="st0" d="M67.1,17.7c-1.3,0-2.4,1-2.4,2.5,0,1.4,1.1,2.5,2.4,2.5,1.3,0,2.4-1,2.4-2.5,0-1.5-1.1-2.5-2.4-2.5Z"/>
  <path class="st0" d="M41.1,17.6c-1.1,0-2,.7-2.2,1.8h4.4c-.2-1.1-1.1-1.8-2.2-1.8Z"/>
  <path class="st0" d="M57.2,17.7c-1.3,0-2.4,1-2.4,2.5,0,1.4,1.1,2.5,2.4,2.5,1.3,0,2.4-1.1,2.4-2.5,0-1.4-1.1-2.5-2.4-2.5Z"/>
  <path class="st0" d="M20.4,17.7c-1.3,0-2.4,1-2.4,2.5,0,1.4,1.1,2.5,2.4,2.5,1.3,0,2.4-1,2.4-2.5,0-1.5-1.1-2.5-2.4-2.5Z"/>
  <path class="st0" d="M95.8,0H20.2C9,0,0,9,0,20.2s9,20.2,20.2,20.2h75.6c11.1,0,20.2-9,20.2-20.2,0-11.1-9-20.2-20.2-20.2ZM25,24.5h-2.1v-1.1c-.6.8-1.6,1.3-2.7,1.3-2.4,0-4.2-1.9-4.2-4.5,0-2.6,1.9-4.5,4.3-4.5s2.1.5,2.7,1.3v-1.1h2.1v8.7ZM35.8,24.5h-1.1c-1.8,0-2.5-.8-2.5-2.5v-4.3h-2.8v6.8h-2.2v-6.8h-1.2v-1.9h1.2v-1.2c0-1.8.9-2.4,2.7-2.4h1.1v1.7h-.5c-.8,0-1,.3-1,1v.9h2.8v-2.1h2.2v2.1h1.4v1.9h-1.4v3.9c0,.7.2,1,1,1h.4v1.9ZM45.5,20.8h-6.7c.2,1.3,1.1,2,2.2,2,.9,0,1.6-.4,2.1-1.1h2.2c-.5,1.8-2.2,3-4.4,3-2.6,0-4.5-1.8-4.5-4.5,0-2.6,2-4.5,4.5-4.5s4.5,1.9,4.5,4.5c0,.2,0,.4,0,.6ZM51.6,18.1s-.8-.5-1.5-.4c-.7.1-1.2.8-1.2,1.7v5.2h-2.2v-8.7h2.1v.9h0s.6-1,1.9-1,.9.2.9.2v2.2ZM57.5,24.7c-1.1,0-2-.4-2.6-1.2v4.6h-2.2v-12.3h2.1v1.1c.6-.8,1.6-1.3,2.7-1.3,2.4,0,4.2,1.9,4.2,4.5,0,2.6-1.9,4.5-4.3,4.5ZM71.6,24.5h-2.1v-1.1c-.6.8-1.6,1.3-2.7,1.3-2.4,0-4.2-1.9-4.2-4.5,0-2.6,1.9-4.5,4.3-4.5s2.1.5,2.7,1.3v-1.1h2.1v8.7ZM73.8,28.1l2.2-4.6-3.5-7.7h2.5l2.2,5.1,2.4-5.1h2.5l-5.9,12.3h-2.5ZM98.8,19.8l-2.5,1.5-2.6,1.5c-1.7,1-3.8-.2-3.8-2.2v-.4c0-.4-.4-.6-.8-.4l-2.3,1.3-2.3,1.3c-.3.2-.3.7,0,.9l2.3,1.3,2.3,1.3c.3.2.8,0,.8-.4v-.8c0-.4.4-.6.7-.4l1.2.7c.2,0,.3.3.3.4v.3c0,2-2.1,3.2-3.8,2.2l-2.6-1.5-2.5-1.5c-1.7-1-1.7-3.5,0-4.4l2.5-1.5,2.6-1.5c1.7-1,3.8.2,3.8,2.2v.4c0,.4.4.6.8.4l2.3-1.3,2.3-1.3c.3-.2.3-.7,0-.9l-2.3-1.3-2.3-1.3c-.3-.2-.8,0-.8.4v.8c0,.4-.4.6-.7.4l-1.2-.7c-.2,0-.3-.3-.3-.4v-.3c0-2,2.1-3.2,3.8-2.2l2.6,1.5,2.5,1.5c1.7,1,1.7,3.4,0,4.4Z"/>
</svg>