<svg width="110" height="15" viewBox="0 0 110 15" fill="none" xmlns="http://www.w3.org/2000/svg">
<path fill-rule="evenodd" clip-rule="evenodd" d="M94.3088 6.90215C95.6937 6.90215 96.2268 7.74759 96.3025 8.48576C96.3088 8.53308 96.271 8.57406 96.2237 8.57406H92.4224C92.3751 8.57406 92.3372 8.52992 92.3435 8.4826C92.4476 7.76336 93.0848 6.90215 94.312 6.90215H94.3088ZM96.394 11.5867C96.3435 11.5867 96.2931 11.6119 96.2647 11.6529C95.9208 12.1356 95.3624 12.4322 94.5296 12.4322C93.3814 12.4322 92.3845 11.6782 92.2773 10.612C92.2741 10.5646 92.3088 10.5236 92.3561 10.5236H99.1858C99.2048 10.4637 99.2458 10.0063 99.2458 9.58987C99.2458 6.40688 97.3467 4.51726 94.2678 4.51726C91.6874 4.51726 89.3088 6.54567 89.3088 9.72865C89.3088 12.9116 91.7473 15 94.4855 15C96.9618 15 98.5297 13.6151 99.0376 11.9432C99.0407 11.9337 99.0565 11.8706 99.0754 11.7791C99.0975 11.6813 99.0218 11.5867 98.9177 11.5867H96.3877H96.394ZM102.432 9.67505L99.1921 5.06303C99.1164 4.95893 99.1921 4.81381 99.3246 4.81381H102.511C102.564 4.81381 102.615 4.84219 102.643 4.88636L104.309 7.41635C104.34 7.46367 104.413 7.46367 104.445 7.41635L106.069 4.88951C106.098 4.84535 106.148 4.81696 106.205 4.81696H109.208C109.337 4.81696 109.413 4.96205 109.337 5.06931L106.142 9.56145C106.104 9.61508 106.104 9.69081 106.142 9.74444C107.189 11.2334 108.385 12.9495 109.457 14.4542C109.533 14.5583 109.457 14.7066 109.328 14.7066H106.167C106.113 14.7066 106.063 14.6782 106.034 14.6341L104.309 12.0221C104.277 11.9747 104.208 11.9747 104.176 12.0221C103.659 12.7886 102.984 13.858 102.47 14.6372C102.441 14.6814 102.391 14.7098 102.337 14.7098H99.3909C99.2615 14.7098 99.1858 14.5646 99.2584 14.4605L102.441 9.86748C102.479 9.81385 102.479 9.74127 102.441 9.68448L102.432 9.67505ZM85.2709 14.5394V0.457292C85.2709 0.368964 85.3435 0.299562 85.4318 0.299562H88.1511C88.2394 0.299562 88.3119 0.372118 88.3119 0.457292V14.5394C88.3119 14.6277 88.2394 14.6971 88.1511 14.6971H85.4318C85.3435 14.6971 85.2709 14.6246 85.2709 14.5394ZM80.7945 14.5394V0.457292C80.7945 0.368964 80.8671 0.299562 80.9554 0.299562H83.6747C83.763 0.299562 83.8356 0.372118 83.8356 0.457292V14.5394C83.8356 14.6277 83.763 14.6971 83.6747 14.6971H80.9554C80.8671 14.6971 80.7945 14.6246 80.7945 14.5394ZM74.0689 12.3722C75.2898 12.3722 76.3276 11.4164 76.3276 9.7476C76.3276 8.07882 75.3087 7.1419 74.0689 7.1419C72.8292 7.1419 71.7882 8.03781 71.7882 9.7476C71.7882 11.4574 72.8071 12.3722 74.0689 12.3722ZM76.3497 13.4258C75.9112 14.3817 74.9112 14.9779 73.6715 14.9779C70.7535 14.9779 68.7345 12.7697 68.7345 9.7255C68.7345 6.68131 70.6336 4.5141 73.5737 4.5141C75.3529 4.5141 76.132 5.48888 76.3339 5.9463V4.97154C76.3339 4.88321 76.4065 4.81065 76.4948 4.81065H79.1131C79.2015 4.81065 79.274 4.88321 79.274 4.97154V14.5394C79.274 14.6277 79.2015 14.6971 79.1131 14.6971H76.4948C76.4065 14.6971 76.3339 14.6246 76.3339 14.5363C76.3402 14.1766 76.3529 13.347 76.3529 13.4258H76.3497ZM62.2455 4.92421L64.0657 10.4353C64.091 10.511 64.1982 10.5078 64.2171 10.4321L65.7724 4.93053C65.7913 4.86112 65.8544 4.81381 65.9269 4.81381H68.5673C68.6746 4.81381 68.7534 4.91792 68.7219 5.01886L65.7408 14.5867C65.7187 14.653 65.6588 14.7003 65.5894 14.7003H62.8039C62.7345 14.7003 62.6745 14.6561 62.6525 14.5931L60.6051 8.54252C60.5799 8.46997 60.4758 8.46997 60.4537 8.54252L58.4474 14.5931C58.4253 14.6593 58.3654 14.7035 58.296 14.7035H55.4505C55.3811 14.7035 55.318 14.6593 55.2991 14.5931L52.2801 5.02514C52.2486 4.92419 52.3243 4.81696 52.4316 4.81696H55.2518C55.3243 4.81696 55.3874 4.86428 55.4063 4.93368L56.9616 10.4164C56.9836 10.4921 57.0909 10.4952 57.113 10.4195L58.9521 4.92421C58.9742 4.85796 59.0341 4.81381 59.1035 4.81381H62.0909C62.1603 4.81381 62.2203 4.85796 62.2424 4.92421H62.2455ZM51.4536 7.60246C51.4536 7.70025 51.3653 7.77596 51.2675 7.76019C50.9962 7.71287 50.7375 7.70027 50.4946 7.70027C49.2738 7.70027 48.176 8.41637 48.176 10.3848V14.5426C48.176 14.6309 48.1035 14.7003 48.0151 14.7003H45.2959C45.2075 14.7003 45.135 14.6277 45.135 14.5426V4.97469C45.135 4.88637 45.2075 4.81381 45.2959 4.81381H47.9142C48.0025 4.81381 48.0751 4.88637 48.0751 4.97469V6.14819C48.5956 5.03462 49.8543 4.716 50.6555 4.716C50.8984 4.716 51.1413 4.74126 51.3306 4.78227C51.4032 4.79804 51.4568 4.86429 51.4568 4.93684V7.60246H51.4536ZM40.5987 14.5394V4.97154C40.5987 4.88321 40.6712 4.81065 40.7596 4.81065H43.4788C43.5671 4.81065 43.6397 4.88321 43.6397 4.97154V14.5394C43.6397 14.6277 43.5671 14.6971 43.4788 14.6971H40.7596C40.6712 14.6971 40.5987 14.6246 40.5987 14.5394ZM42.0971 0.0187988C43.0971 0.0187988 43.8952 0.813791 43.8952 1.78856C43.8952 2.76333 43.094 3.55828 42.0971 3.55828C41.1003 3.55828 40.3368 2.76333 40.3368 1.78856C40.3368 0.813791 41.1381 0.0187988 42.0971 0.0187988ZM30.9141 8.97154H34.1286C34.1822 8.97154 34.2232 8.91793 34.2043 8.86745L32.6176 4.31536C32.5923 4.2428 32.4914 4.2428 32.4661 4.31536L30.8415 8.86745C30.8226 8.91793 30.8604 8.9747 30.9172 8.9747L30.9141 8.97154ZM35.1254 11.8359H29.873C29.8036 11.8359 29.7437 11.8769 29.7216 11.9432L28.7784 14.5962C28.7563 14.6593 28.6964 14.7035 28.627 14.7035H25.6522C25.5418 14.7035 25.4629 14.593 25.5039 14.4889L30.7216 0.70336C30.7437 0.640268 30.8037 0.599272 30.8699 0.599272H34.3084C34.3747 0.599272 34.4346 0.640268 34.4567 0.70336L39.6144 14.4889C39.6523 14.593 39.5766 14.7035 39.4662 14.7035H36.3715C36.3021 14.7035 36.2422 14.6625 36.2201 14.5962L35.2769 11.9432C35.2548 11.8801 35.1948 11.8359 35.1254 11.8359Z" fill="#121010"/>
<path fill-rule="evenodd" clip-rule="evenodd" d="M6.00028 0.0481562C7.12963 -0.147429 8.2432 0.259508 8.98453 1.14595L14.0382 7.19644L18.6881 5.30057C19.7228 4.87785 20.8584 5.10498 21.6565 5.89048C22.4547 6.67597 22.707 7.81792 22.319 8.87155L20.8521 12.8558C20.4673 13.9031 19.5871 14.7107 18.502 14.9221C18.3001 14.9599 18.0982 14.9788 17.8994 14.9788C16.9941 14.9788 16.1392 14.5814 15.5398 13.8653L6.7353 3.32894C6.64066 3.21538 6.4577 3.2469 6.40407 3.38571L3.5397 11.1271C3.47976 11.288 3.63749 11.4425 3.79522 11.3794L7.30944 9.94412C8.1391 9.60658 9.08548 10.0387 9.37255 10.9094C9.63122 11.7044 9.19589 12.5624 8.42617 12.8779L3.83308 14.7517C2.98133 15.0987 2.00656 15.0357 1.24 14.5278C0.148506 13.799 -0.267902 12.4331 0.173742 11.2407L3.55863 2.09864C3.95926 1.01346 4.87409 0.250053 6.00344 0.0513139L6.00028 0.0481562ZM18.972 8.9252C19.0319 8.76431 18.8742 8.60972 18.7165 8.67597L16.1486 9.72328L17.6881 11.5687C17.7827 11.6823 17.9657 11.6508 18.0193 11.5119L18.972 8.92835V8.9252Z" fill="#121010"/>
</svg>
