<svg width="140" height="13" viewBox="0 0 140 13" fill="none" xmlns="http://www.w3.org/2000/svg">
<g clip-path="url(#clip0_13_790)">
<path fill-rule="evenodd" clip-rule="evenodd" d="M139.399 2.31385C139.163 2.51673 138.879 2.61817 138.544 2.61817C138.209 2.61817 137.924 2.51673 137.691 2.31385C137.458 2.11058 137.342 1.86535 137.342 1.57699C137.342 1.29138 137.458 1.04753 137.692 0.845441C137.929 0.642563 138.212 0.541123 138.544 0.541123C138.877 0.541123 139.162 0.642563 139.399 0.845441C139.632 1.04753 139.748 1.29138 139.748 1.57699C139.748 1.86535 139.632 2.11058 139.399 2.31385ZM139.537 0.727851C139.263 0.494441 138.932 0.377441 138.544 0.377441C138.158 0.377441 137.83 0.494441 137.557 0.727851C137.283 0.962244 137.147 1.2449 137.147 1.57561C137.147 1.90967 137.282 2.1937 137.554 2.42829C137.825 2.66406 138.156 2.78185 138.544 2.78185C138.932 2.78185 139.263 2.66406 139.537 2.42829C139.81 2.19271 139.947 1.90829 139.947 1.57561C139.947 1.24411 139.81 0.96126 139.537 0.727851Z" fill="#121010"/>
<mask id="mask0_13_790" style="mask-type:luminance" maskUnits="userSpaceOnUse" x="0" y="0" width="140" height="13">
<path d="M0.0136719 0.0822754H139.178V12.9881H0.0136719V0.0822754Z" fill="white"/>
</mask>
<g mask="url(#mask0_13_790)">
<path fill-rule="evenodd" clip-rule="evenodd" d="M138.754 1.51986C138.696 1.53936 138.609 1.54901 138.494 1.54901H138.25V1.07116H138.482C138.633 1.07116 138.742 1.08731 138.81 1.1204C138.879 1.15329 138.913 1.21731 138.913 1.31323C138.913 1.41487 138.86 1.48361 138.754 1.51986ZM139.155 2.14661C139.152 2.11155 139.151 2.07886 139.151 2.04872V1.95201C139.151 1.88543 139.123 1.81748 139.067 1.74775C139.012 1.67822 138.924 1.63508 138.803 1.61854C138.899 1.60534 138.973 1.58407 139.026 1.55472C139.126 1.49917 139.176 1.41251 139.176 1.29432C139.176 1.12848 139.096 1.0166 138.938 0.960067C138.849 0.928158 138.708 0.912598 138.518 0.912598H137.979V2.23151H138.25V1.71269H138.464C138.608 1.71269 138.708 1.72667 138.765 1.75504C138.862 1.80408 138.91 1.90493 138.91 2.05739V2.16139L138.916 2.20413C138.918 2.20925 138.918 2.21417 138.92 2.2189C138.921 2.22323 138.922 2.22717 138.924 2.23151H139.178L139.169 2.21536C139.162 2.20452 139.158 2.18167 139.155 2.14661Z" fill="#121010"/>
</g>
<mask id="mask1_13_790" style="mask-type:luminance" maskUnits="userSpaceOnUse" x="0" y="0" width="140" height="13">
<path d="M0.0136719 0.0822754H139.178V12.9881H0.0136719V0.0822754Z" fill="white"/>
</mask>
<g mask="url(#mask1_13_790)">
<path fill-rule="evenodd" clip-rule="evenodd" d="M6.79448 11.917C5.09581 11.917 4.87796 11.0025 4.87796 9.54648V7.34377C4.87796 6.59706 4.87796 6.57835 6.07567 6.57835C8.1666 6.57835 9.25539 7.71703 9.25539 9.34104C9.25539 10.8534 8.40605 11.917 6.79448 11.917ZM4.87796 2.1546C4.87796 1.33324 4.89957 1.18354 5.92332 1.18354C7.42596 1.18354 8.60207 1.98639 8.60207 3.61021C8.60207 4.73038 7.90532 5.75698 6.03201 5.75698C4.89957 5.75698 4.87796 5.71975 4.87796 5.23442V2.1546ZM9.42957 6.0745C9.23379 6.03707 9.12486 5.98094 9.12486 5.92539C9.12486 5.83163 9.34248 5.75698 9.56033 5.71975C10.2355 5.57045 11.7816 4.95433 11.7816 3.38665C11.7816 2.285 11.2153 1.50106 10.2791 1.01553C9.32065 0.530391 7.92715 0.324951 5.83622 0.324951C3.65843 0.324951 2.06868 0.3998 0.41368 0.493163C0.0866769 0.511678 0.130568 1.07186 0.326586 1.16522L0.914409 1.23968C1.82901 1.33324 1.87267 1.53828 1.87267 3.42388V10.0131C1.87267 11.6931 1.74168 11.8236 0.762053 11.9919L0.130568 12.1037C-0.0438483 12.1599 -0.0438483 12.645 0.130568 12.7573C1.37171 12.7201 2.43866 12.7011 3.50607 12.7011C4.13756 12.7011 4.96529 12.776 5.74913 12.776C7.07759 12.776 8.71123 12.7201 10.0829 12.309C11.455 11.8983 12.6527 10.8906 12.6309 9.17322C12.6093 7.36248 11.1501 6.39181 9.42957 6.0745Z" fill="#121010"/>
</g>
<mask id="mask2_13_790" style="mask-type:luminance" maskUnits="userSpaceOnUse" x="0" y="0" width="140" height="13">
<path d="M0.0136719 0.0822754H139.178V12.9881H0.0136719V0.0822754Z" fill="white"/>
</mask>
<g mask="url(#mask2_13_790)">
<path fill-rule="evenodd" clip-rule="evenodd" d="M23.7516 9.62113C22.4668 11.7864 21.8569 11.8426 19.8751 11.8426C18.2851 11.8426 17.8933 11.6931 17.6102 11.3761C17.3269 11.0771 17.2398 10.4797 17.2398 9.60242V3.06894C17.2398 1.33324 17.3703 1.20225 18.3504 1.05315L18.9169 0.9783C19.0913 0.866224 19.0913 0.437027 18.9169 0.324951C17.8278 0.362572 16.7388 0.380891 15.6937 0.380891C14.6484 0.380891 13.5596 0.362572 12.4271 0.324951C12.1659 0.437027 12.1659 0.866224 12.3835 0.9783L13.015 1.05315C13.995 1.20225 14.1258 1.33324 14.1258 3.06894V10.0131C14.1258 11.7492 13.995 11.8798 13.015 12.0102L12.1875 12.1037C12.013 12.2156 12.0565 12.645 12.2527 12.7573C13.6028 12.7201 14.6918 12.7011 15.6937 12.7011H18.6119C20.3977 12.7011 22.4884 12.7201 23.6427 12.7573C23.9474 12.2532 24.4704 10.7041 24.5791 9.73301C24.4267 9.50925 23.9258 9.43441 23.7516 9.62113Z" fill="#121010"/>
</g>
<mask id="mask3_13_790" style="mask-type:luminance" maskUnits="userSpaceOnUse" x="0" y="0" width="140" height="13">
<path d="M0.0136719 0.0822754H139.178V12.9881H0.0136719V0.0822754Z" fill="white"/>
</mask>
<g mask="url(#mask3_13_790)">
<path fill-rule="evenodd" clip-rule="evenodd" d="M31.9179 7.49306H30.0232C29.4788 7.49306 29.3478 7.43712 29.5657 6.93328L30.1103 5.53302C30.4369 4.67423 30.7855 3.89029 31.0031 3.47961C31.1991 3.87197 31.4822 4.637 31.7872 5.44005L32.3536 6.95179C32.5494 7.43712 32.4189 7.49306 31.9179 7.49306ZM38.3208 11.9919C37.5146 11.8613 37.3186 11.4506 36.8616 10.3304L33.8995 3.01318C33.3551 1.68778 33.094 0.9972 32.9196 0.45573C32.8323 0.175639 32.702 0.0822754 32.4189 0.0822754C32.3752 0.0822754 31.5693 0.9972 30.5242 1.20244C30.5892 1.74352 30.1976 2.39687 29.6748 3.57297L27.7147 8.1279C27.1268 9.47182 26.7566 10.3678 26.3644 11.1144C26.0158 11.8425 25.5585 11.9919 25.0361 12.048L24.4481 12.1037C24.2955 12.2532 24.2739 12.645 24.5134 12.7575C25.515 12.7575 26.0158 12.7011 26.7566 12.7011C27.671 12.72 28.5422 12.72 29.3042 12.7575C29.5223 12.6639 29.4788 12.2345 29.3478 12.1037L28.6948 12.0108C28.0849 11.917 27.9107 11.8053 27.9107 11.693C27.9107 11.5437 27.9323 11.3944 28.0633 11.0214L28.8689 8.8557C28.9997 8.50096 29.0647 8.48224 29.5873 8.48224H32.0266C32.7891 8.48224 32.9633 8.51987 33.0722 8.81847L33.6602 10.4238C33.9215 11.1144 34.0739 11.5625 34.0739 11.693C34.0739 11.8053 33.9868 11.9361 33.486 12.0108L32.7891 12.1037C32.5494 12.2532 32.5931 12.645 32.8323 12.7575C33.8342 12.72 34.6838 12.7011 35.7725 12.7011C36.9052 12.7011 38.0811 12.72 39.1264 12.7575C39.3225 12.645 39.2788 12.1973 39.148 12.1037L38.3208 11.9919Z" fill="#121010"/>
</g>
<mask id="mask4_13_790" style="mask-type:luminance" maskUnits="userSpaceOnUse" x="0" y="0" width="140" height="13">
<path d="M0.0136719 0.0822754H139.178V12.9881H0.0136719V0.0822754Z" fill="white"/>
</mask>
<g mask="url(#mask4_13_790)">
<path fill-rule="evenodd" clip-rule="evenodd" d="M50.2109 9.24767C49.6231 10.5173 48.4036 12.1414 45.7683 12.1414C43.155 12.1414 40.6502 10.1437 40.6502 6.42884C40.6502 2.71418 43.2421 0.941063 45.6591 0.941063C47.7719 0.941063 49.1658 1.87431 49.7536 3.6104C49.9062 3.77841 50.4941 3.70356 50.5809 3.47961C50.3851 2.39687 50.3199 0.903836 50.3199 0.567609C49.6666 0.530381 48.055 0.0822754 45.8335 0.0822754C43.5689 0.0822754 41.3472 0.642457 39.8011 1.74352C38.2984 2.80755 37.1658 4.41305 37.1658 6.69041C37.1658 9.005 38.3637 10.5546 39.9321 11.5812C41.4779 12.5707 43.6557 12.9999 45.7901 12.9999C47.4885 12.9999 49.0348 12.5891 50.2109 12.309C50.5159 11.8798 50.8861 10.7596 51.0387 9.37826C50.9079 9.15431 50.3851 9.09856 50.2109 9.24767Z" fill="#121010"/>
</g>
<mask id="mask5_13_790" style="mask-type:luminance" maskUnits="userSpaceOnUse" x="0" y="0" width="140" height="13">
<path d="M0.0136719 0.0822754H139.178V12.9881H0.0136719V0.0822754Z" fill="white"/>
</mask>
<g mask="url(#mask5_13_790)">
<path fill-rule="evenodd" clip-rule="evenodd" d="M84.772 12.0291C83.9227 11.917 83.8358 11.4878 83.7921 10.629C83.6616 8.27721 83.618 6.26083 83.618 2.41578C83.618 1.42621 84.0537 1.22097 84.9462 1.07186L85.5779 0.9783C85.7521 0.791769 85.7521 0.43683 85.5126 0.325148C84.7286 0.362572 83.7267 0.380891 83.0081 0.380891C82.3548 0.380891 81.6798 0.399406 80.6777 0.325148C80.1986 1.93045 79.7415 2.80756 78.6743 4.73038L77.5637 6.78378C76.9757 7.88504 76.627 8.46413 76.3442 8.91185C76.0395 8.44503 75.3861 7.38119 75.1683 7.00754L73.7307 4.37563C72.7724 2.62083 72.0104 1.48235 72.0104 0.325148C71.2261 0.380891 70.5948 0.380891 69.8758 0.380891C68.8086 0.380891 67.872 0.362572 67.1318 0.325148C66.8923 0.380891 66.8923 0.8288 67.0665 0.9783L67.5459 1.05295C68.4168 1.22097 68.8959 1.46363 68.8959 2.52786C68.8959 3.53575 68.8302 5.04769 68.7434 6.29845C68.6124 8.07177 68.5041 9.69598 68.3952 10.6103C68.2645 11.7679 67.9945 11.9401 67.1256 12.0641C66.9151 12.0941 66.584 12.124 66.1604 12.0551C65.6422 11.9708 65.1286 11.8051 64.5404 11.1333C63.06 9.45292 61.775 7.66128 60.6862 6.26103C60.0326 5.42095 59.9019 5.197 59.9019 5.10363C59.9019 5.02898 59.9674 4.87988 60.185 4.67424L61.1869 3.70357C62.6243 2.34074 63.5389 1.61294 64.4101 1.31433C64.8674 1.14651 65.5207 1.05295 66.2829 0.978497C66.4571 0.828997 66.4355 0.3998 66.174 0.324951C65.3028 0.362572 64.3448 0.380891 63.5389 0.380891C62.7551 0.380891 61.9489 0.362572 60.8385 0.324951C60.5552 0.3998 60.5115 0.847512 60.7512 0.978497L61.2522 1.05295C61.5353 1.10909 61.6224 1.22116 61.6224 1.29601C61.6224 1.37047 61.5353 1.53828 61.339 1.78095C60.6423 2.65845 59.5753 3.75971 58.4211 4.95433C58.0727 5.32798 57.2015 6.03727 56.744 6.03727C56.483 6.03727 56.3522 5.96242 56.3522 5.3463V3.06894C56.3522 1.33344 56.483 1.20225 57.463 1.05295L58.0727 0.978497C58.2685 0.866421 58.2685 0.437027 58.0727 0.324951C56.9184 0.362572 55.8294 0.380891 54.7841 0.380891C53.6953 0.380891 52.6065 0.362572 51.5175 0.324951C51.278 0.437027 51.278 0.866421 51.5175 0.978497L52.1271 1.05295C53.1072 1.20225 53.238 1.33344 53.238 3.06894V10.0131C53.238 11.7492 53.1072 11.8798 52.1271 12.0291L51.5175 12.1037C51.3431 12.2158 51.3431 12.6452 51.5175 12.7575C52.6715 12.7201 53.8042 12.701 54.7841 12.701C55.8294 12.701 56.9184 12.7201 58.0727 12.7575C58.2469 12.6452 58.2469 12.2345 58.0727 12.1037L57.463 12.0291C56.483 11.8798 56.3522 11.7492 56.3522 10.0131V8.05325C56.3522 7.04536 56.3738 6.78378 56.875 6.78378C57.3539 6.78378 57.7241 7.23189 58.5082 8.2585L59.6624 9.77024C59.8803 10.0503 60.7949 11.2641 60.9254 11.4321C61.0559 11.6001 61.0998 11.7303 61.0998 11.8051C61.0998 11.8798 60.9691 11.9542 60.7296 11.9919L60.185 12.1037C59.9453 12.2158 59.9453 12.6828 60.2284 12.7575C61.4482 12.7201 62.5372 12.701 63.6481 12.701C64.6495 12.701 65.6949 12.7201 66.7836 12.7575C67.6541 12.7203 68.5473 12.701 69.2441 12.701C70.0721 12.701 71.0085 12.7201 71.8139 12.7573C71.9886 12.6639 72.032 12.2345 71.8576 12.1037L71.0085 11.9919C70.1371 11.8613 70.0073 11.6186 70.0073 10.6848C70.0073 9.56519 70.0284 7.69831 70.0502 6.48498C70.0721 5.51431 70.1153 4.78651 70.2026 3.57318H70.2462C71.466 6.00004 74.0574 10.5359 74.907 12.8505C75.0371 12.9251 75.277 12.9625 75.473 12.9625C75.6474 12.9625 75.7998 12.9066 75.9085 12.8315C77.3456 9.67727 79.0882 6.55983 80.6998 3.57318H80.743V5.70104L80.7866 10.5546C80.7866 11.6931 80.7866 11.8613 79.7852 12.0291L79.1316 12.1037C78.914 12.2345 78.9358 12.6639 79.1971 12.7573C80.2425 12.7201 81.4402 12.701 82.42 12.701C83.4872 12.701 84.4239 12.7201 85.4253 12.7573C85.6434 12.6824 85.6434 12.2532 85.4688 12.1037L84.772 12.0291Z" fill="#121010"/>
</g>
<mask id="mask6_13_790" style="mask-type:luminance" maskUnits="userSpaceOnUse" x="0" y="0" width="140" height="13">
<path d="M0.0136719 0.0822754H139.178V12.9881H0.0136719V0.0822754Z" fill="white"/>
</mask>
<g mask="url(#mask6_13_790)">
<path fill-rule="evenodd" clip-rule="evenodd" d="M92.8731 12.1414C89.3227 12.1414 88.3868 8.48229 88.3868 6.20513C88.3868 3.08808 89.8235 0.94111 92.5027 0.94111C95.2026 0.94111 96.8364 3.53599 96.8364 6.72788C96.8364 9.75176 95.7256 12.1414 92.8731 12.1414ZM92.6771 0.0825195C88.125 0.0825195 84.9021 2.93858 84.9021 6.63472C84.9021 10.5357 88.0818 13 92.4595 13C97.1414 13 100.321 10.5544 100.321 6.48502C100.321 2.69591 97.2064 0.0825195 92.6771 0.0825195Z" fill="#121010"/>
</g>
<mask id="mask7_13_790" style="mask-type:luminance" maskUnits="userSpaceOnUse" x="0" y="0" width="140" height="13">
<path d="M0.0136719 0.0822754H139.178V12.9881H0.0136719V0.0822754Z" fill="white"/>
</mask>
<g mask="url(#mask7_13_790)">
<path fill-rule="evenodd" clip-rule="evenodd" d="M107.703 5.96266C107.289 6.31721 106.832 6.48523 106.048 6.48523C104.763 6.48523 104.698 6.42909 104.698 5.77594V2.13574C104.741 1.23973 104.741 1.18398 105.634 1.18398C107.333 1.18398 108.487 2.26653 108.487 3.94648C108.487 5.04774 108.074 5.64535 107.703 5.96266ZM125.321 9.67712C124.123 11.7865 123.383 11.8428 121.488 11.8428C119.898 11.8428 119.484 11.6933 119.202 11.3573C118.94 11.0401 118.853 10.4425 118.853 9.58415V7.36253C118.853 6.80254 118.875 6.78383 119.463 6.78383H120.966C122.098 6.78383 122.337 6.93333 122.577 7.82935L122.686 8.29577C122.838 8.46398 123.383 8.44527 123.492 8.27745C123.448 7.67985 123.426 7.00779 123.426 6.2987C123.426 5.58921 123.448 4.91754 123.492 4.31994C123.383 4.15192 122.838 4.15192 122.686 4.30142L122.577 4.76804C122.337 5.66406 122.098 5.79465 120.966 5.79465H119.463C118.875 5.79465 118.853 5.75723 118.853 5.23447V1.96773C118.853 1.27715 118.853 1.23973 119.572 1.23973H121.314C122.381 1.23973 123.034 1.46368 123.448 1.81842C123.731 2.08 124.036 2.63959 124.276 3.29313C124.493 3.46115 124.995 3.42373 125.081 3.21829C124.973 1.96773 124.82 0.623801 124.798 0.325195C124.515 0.36262 123.274 0.381135 121.88 0.381135H117.263C116.218 0.381135 115.151 0.36262 114.127 0.325195C113.909 0.437074 113.887 0.866468 114.084 0.978544L114.628 1.07171C115.608 1.22121 115.739 1.352 115.739 3.05047V10.0133C115.739 11.7303 115.567 11.9547 114.582 12.1197C114.283 12.1698 114.016 12.1404 113.838 12.1063C113.528 12.0406 113.143 11.9052 112.756 11.6376C111.71 10.8719 110.818 9.47188 109.38 6.97056C109.271 6.76512 109.271 6.65304 109.489 6.56007C110.491 6.13048 111.798 5.4212 111.798 3.75976C111.798 2.56513 111.144 1.63209 109.881 0.997256C109.053 0.568059 107.464 0.325195 105.613 0.325195C103.544 0.325195 101.845 0.400044 100.212 0.49321C99.9501 0.586574 99.95 1.0532 100.168 1.14676L100.756 1.22121C101.671 1.33309 101.714 1.53853 101.714 3.40501V10.0133C101.714 11.7303 101.583 11.8613 100.603 12.0104L100.016 12.104C99.8418 12.1971 99.8418 12.6453 100.016 12.7573C101.148 12.7203 102.106 12.7014 103.195 12.7014C104.241 12.7014 105.242 12.7203 106.396 12.7573C106.549 12.6453 106.549 12.1971 106.396 12.104L105.809 12.0104C104.829 11.8613 104.698 11.7303 104.698 10.0133V7.71747C104.698 7.34401 104.741 7.30679 105.504 7.30679C106.048 7.30679 106.396 7.45589 106.658 7.95994C107.159 8.94932 107.66 9.86385 108.357 10.8534C109.315 12.1971 110.617 12.7733 112.62 12.7493C112.946 12.7457 113.285 12.7587 113.586 12.7552C115.22 12.7173 116.305 12.7014 117.35 12.7014H120.181C121.967 12.7014 124.058 12.7203 125.212 12.7575C125.517 12.2533 126.04 10.7415 126.127 9.77068C126.04 9.54653 125.496 9.47207 125.321 9.67712Z" fill="#121010"/>
</g>
<mask id="mask8_13_790" style="mask-type:luminance" maskUnits="userSpaceOnUse" x="0" y="0" width="140" height="13">
<path d="M0.0136719 0.0822754H139.178V12.9881H0.0136719V0.0822754Z" fill="white"/>
</mask>
<g mask="url(#mask8_13_790)">
<path fill-rule="evenodd" clip-rule="evenodd" d="M133.487 5.45841L132.05 4.80526C130.961 4.31993 130.068 3.53599 130.068 2.6772C130.068 1.74376 130.852 0.94111 132.289 0.94111C133.857 0.94111 134.794 2.30375 135.164 3.2559C135.36 3.44263 135.904 3.42391 136.013 3.19976C136.013 1.9494 135.796 0.94111 135.622 0.530626C135.36 0.493004 135.164 0.455974 134.881 0.381126C134.01 0.156974 133.117 0.0825195 132.399 0.0825195C129.24 0.0825195 127.346 1.53852 127.346 3.64826C127.367 5.49584 129.066 6.61581 130.634 7.28787C131.941 7.84805 133.596 8.74387 133.596 10.256C133.596 11.1892 132.855 12.1414 131.244 12.1414C129.393 12.1414 127.934 10.4238 127.498 9.21069C127.324 9.00544 126.823 9.02396 126.671 9.26643C126.671 10.5359 126.954 11.88 127.367 12.2905C127.825 12.5145 129.066 13 131.069 13C134.359 13 136.557 11.5064 136.557 9.21069C136.557 7.15708 134.837 6.07453 133.487 5.45841Z" fill="#121010"/>
</g>
</g>
<defs>
<clipPath id="clip0_13_790">
<rect width="140" height="13" fill="white"/>
</clipPath>
</defs>
</svg>
