<svg width="138" height="20" viewBox="0 0 138 20" fill="none" xmlns="http://www.w3.org/2000/svg">
<g clip-path="url(#clip0_13_777)">
<path d="M13.6473 10.9261C13.2505 14.0061 10.7011 16.1849 7.08603 16.1849C2.57216 16.1849 0.00195312 13.1049 0.00195312 8.24407C0.00195312 3.38326 2.76032 0.450195 7.1693 0.450195C10.722 0.450195 13.146 2.48244 13.6473 5.64611H10.806C10.2415 3.52979 8.82073 2.83836 7.14889 2.83836C4.87134 2.83836 3.09501 4.72407 3.09501 8.24407C3.09501 11.7641 4.87134 13.7963 7.0444 13.7963C8.84154 13.7963 10.3044 13.0004 10.8056 10.9261H13.6473ZM14.044 10.2996C14.044 6.33958 16.844 4.39101 19.686 4.39101C22.5281 4.39101 25.3285 6.33958 25.3285 10.2996C25.3285 14.2592 22.5285 16.1869 19.6864 16.1869C16.8448 16.1869 14.0444 14.2384 14.0444 10.2992M16.9701 10.2992C16.9701 12.6665 18.0983 13.9237 19.6864 13.9237C21.2746 13.9237 22.4032 12.6665 22.4032 10.2992C22.4032 7.93183 21.2746 6.65346 19.6864 6.65346C18.0983 6.65346 16.9701 7.93142 16.9701 10.2992ZM29.0044 6.12652C29.6522 4.97387 30.8644 4.38734 32.2644 4.38734C34.9599 4.38734 36.1509 6.02162 36.1509 8.80815V15.911H33.2673V9.43673C33.2673 7.99101 32.9538 6.71305 31.3244 6.71305C29.4224 6.71305 29.0044 8.26366 29.0044 10.0445V15.911H26.1207V4.63877H29.0044V6.12652ZM43.8632 8.03632C43.633 7.09346 42.7975 6.42285 41.4599 6.42285C40.3942 6.42285 39.642 6.82122 39.642 7.51264C39.642 8.11999 40.0807 8.58081 41.1464 8.81142L42.6509 9.14652C44.8868 9.64938 46.7885 10.2151 46.7885 12.5408C46.7885 14.8665 44.4689 16.1865 41.9195 16.1865C39.1615 16.1865 37.0717 14.762 36.7999 12.1849H39.5795C39.7464 13.2743 40.4987 14.091 42.0032 14.091C43.2571 14.091 44.0301 13.6302 44.0301 12.8135C44.0301 11.9967 43.1734 11.6608 42.1913 11.4306L40.5195 11.0743C38.4093 10.6343 37.0093 9.75428 37.0093 7.70081C37.0093 5.64775 39.1824 4.34856 41.606 4.34856C44.0297 4.34856 46.1615 5.43836 46.5587 8.03632H43.8632ZM48.082 1.57999H50.9656V4.63917H53.306V6.62938H50.9656V12.4539C50.9656 13.6065 51.3628 13.8371 52.3869 13.8371H53.2644V15.911H51.1538C48.5628 15.911 48.082 15.1151 48.082 12.8731V6.62938H46.4938V4.63917H48.082V1.57999ZM57.6983 16.1865C55.546 16.1865 53.6444 14.9294 53.6444 12.8763C53.6444 10.2151 56.6117 9.41917 61.0415 8.91632V8.72775C61.0415 6.98897 60.1011 6.38081 58.9313 6.38081C57.8236 6.38081 56.904 6.94693 56.8415 8.20366H54.146C54.3758 5.98326 56.173 4.34856 59.0775 4.34856C61.7313 4.34856 63.9252 5.52203 63.9252 9.31428C63.9252 9.64938 63.8836 11.1792 63.8836 12.1849C63.8836 13.9657 63.9881 14.9714 64.2179 15.9143H61.564C61.4803 15.558 61.4387 15.0759 61.3758 14.5102C60.5611 15.6837 59.3909 16.1865 57.6983 16.1865ZM61.1252 10.76C57.8864 11.0951 56.6117 11.4722 56.6117 12.7294C56.6117 13.5465 57.2387 14.2171 58.555 14.2171C60.373 14.2171 61.1252 13.2535 61.1252 11.598V10.76ZM68.1668 6.12652C68.8146 4.97387 70.0264 4.38734 71.4264 4.38734C74.1224 4.38734 75.3134 6.02162 75.3134 8.80815V15.911H72.4297V9.43673C72.4297 7.99101 72.1162 6.71305 70.486 6.71305C68.5844 6.71305 68.1668 8.26366 68.1668 10.0445V15.911H65.2828V4.63877H68.1668V6.12652ZM77.0873 1.57999H79.9709V4.63917H82.3113V6.62938H79.9709V12.4539C79.9709 13.6065 80.3681 13.8371 81.3917 13.8371H82.2693V15.911H80.1591C77.5677 15.911 77.0873 15.1151 77.0873 12.8731V6.62938H75.4991V4.63917H77.0873V1.57999ZM85.9885 4.63999H83.1048V15.9122H85.9885V4.63999ZM90.4175 6.12652C91.0652 4.97387 92.2775 4.38734 93.6775 4.38734C96.373 4.38734 97.564 6.02162 97.564 8.80815V15.911H94.6803V9.43673C94.6803 7.99101 94.3668 6.71305 92.7371 6.71305C90.8354 6.71305 90.4175 8.26366 90.4175 10.0445V15.911H87.5338V4.63877H90.4175V6.12652ZM98.1922 10.2996C98.1922 6.33958 100.993 4.39101 103.834 4.39101C106.676 4.39101 109.476 6.33958 109.476 10.2996C109.476 14.2592 106.676 16.1869 103.834 16.1869C100.993 16.1869 98.1922 14.2388 98.1922 10.2996ZM101.118 10.2992C101.118 12.6665 102.246 13.9237 103.834 13.9237C105.422 13.9237 106.551 12.6665 106.551 10.2992C106.551 7.93183 105.422 6.65346 103.834 6.65346C102.246 6.65346 101.118 7.93142 101.118 10.2992ZM110.273 19.5784V4.63877H113.157V6.08448C113.763 5.01591 114.975 4.38734 116.396 4.38734C119.113 4.38734 121.286 6.73428 121.286 10.2747C121.286 13.8159 119.05 16.1833 116.375 16.1833C115.205 16.1833 113.888 15.7433 113.157 14.4861V19.5775H110.273V19.5784ZM118.256 10.2967C118.256 8.09673 117.19 6.60938 115.686 6.60938C114.097 6.60938 113.053 8.01305 113.053 10.2759C113.053 12.5388 114.097 13.9633 115.686 13.9633C117.19 13.9633 118.256 12.4967 118.256 10.2967ZM124.982 15.9122H122.098V0.721216H124.982V15.9122ZM128.658 11.0751C128.825 13.0024 130.121 13.9453 131.5 13.9453C132.398 13.9453 133.276 13.631 133.861 12.6465H136.828C136.222 14.3224 134.593 16.1873 131.521 16.1873C127.906 16.1873 125.795 13.4845 125.795 10.2371C125.795 6.98938 128.115 4.39142 131.437 4.39142C134.759 4.39142 137.058 7.09428 136.954 11.0751H128.658ZM128.7 9.08448H134.028C133.966 7.17795 132.628 6.50734 131.416 6.50734C130.33 6.50734 128.93 7.17795 128.7 9.08448Z" fill="#121010"/>
</g>
<defs>
<clipPath id="clip0_13_777">
<rect width="137.551" height="20" fill="white"/>
</clipPath>
</defs>
</svg>
