<svg width="104" height="13" viewBox="0 0 104 13" fill="none" xmlns="http://www.w3.org/2000/svg">
<path d="M10.5658 8.3187H3.28714V12.9954H0V0.000228882H10.5658C12.2573 0.000228882 13.4456 1.18858 13.4456 2.88007V5.44365C13.4456 7.13034 12.2573 8.3187 10.5658 8.3187ZM3.28714 2.42964V5.88449H9.26723C9.77036 5.88449 10.101 5.54907 10.101 5.05073V3.2682C10.101 2.76506 9.76557 2.43443 9.26723 2.43443H3.28714V2.42964Z" fill="#121010"/>
<path d="M26.0433 8.28013L28.7362 12.9952H25.1904L22.5166 8.31847H18.2998V12.9952H15.0127V0H25.5785C27.27 0 28.4583 1.18835 28.4583 2.87984V5.44342C28.4583 6.9672 27.476 8.09805 26.0433 8.28493V8.28013ZM18.2998 2.42941V5.88426H24.2799C24.7831 5.88426 25.1137 5.54884 25.1137 5.0505V3.26797C25.1137 2.76484 24.7783 2.43421 24.2799 2.43421H18.2998V2.42941Z" fill="#121010"/>
<path d="M32.6225 0H40.8643C42.3881 0 43.4662 1.07814 43.4662 2.60192V10.3981C43.4662 11.9219 42.3881 12.9952 40.8643 12.9952H32.6225C31.0987 12.9952 30.0254 11.9171 30.0254 10.3981V2.60192C30.0254 1.07814 31.1035 0 32.6225 0ZM32.0283 6.49761L34.4242 10.6185H39.0674L41.4633 6.49761L39.0674 2.37671H34.4242L32.0283 6.49761Z" fill="#121010"/>
<path d="M47.6303 12.9952C46.1066 12.9952 45.0332 11.9171 45.0332 10.3981V2.60192C45.0332 1.07814 46.1113 0 47.6303 0H55.8721C57.3959 0 58.474 1.07814 58.474 2.60192V5.18467H55.7811L54.1663 2.3815H49.432L47.0361 6.5024L49.432 10.6233H54.1663L55.7811 7.82013H58.474V10.4029C58.474 11.9267 57.3959 13 55.8721 13H47.6303V12.9952Z" fill="#121010"/>
<path d="M62.6421 0H70.8838C72.4076 0 73.4858 1.07814 73.4858 2.60192V10.3981C73.4858 11.9219 72.4076 12.9952 70.8838 12.9952H62.6421C61.1183 12.9952 60.0449 11.9171 60.0449 10.3981V2.60192C60.0449 1.07814 61.1231 0 62.6421 0ZM62.0479 6.49761L64.4437 10.6185H69.0869L71.4828 6.49761L69.0869 2.37671H64.4437L62.0479 6.49761Z" fill="#121010"/>
<path d="M86.0833 8.28013L88.7763 12.9952H85.2304L82.5566 8.31847H78.3399V12.9952H75.0527V0H85.6185C87.31 0 88.4984 1.18835 88.4984 2.87984V5.44342C88.4984 6.9672 87.5161 8.09805 86.0833 8.28493V8.28013ZM78.3399 2.42941V5.88426H84.32C84.8231 5.88426 85.1537 5.54884 85.1537 5.0505V3.26797C85.1537 2.76484 84.8183 2.43421 84.32 2.43421H78.3399V2.42941Z" fill="#121010"/>
<path d="M93.3478 7.70512V10.5658H103.506V13H90.0654V0H103.506V2.43421H93.3478V5.27571H100.44V7.70992H93.3478V7.70512Z" fill="#121010"/>
<path d="M53.0546 4.30795L54.3339 6.49777L53.0546 8.6876H50.5293L49.2451 6.49777L50.5293 4.30795H53.0546Z" fill="#121010"/>
</svg>
