<svg width="52" height="20" viewBox="0 0 52 20" fill="none" xmlns="http://www.w3.org/2000/svg">
<path d="M29.2148 0.282636L24.5021 7.32379L19.7612 0.282636H15.2475L22.5156 11.127V19.7191H26.4904V11.0722L33.7302 0.282636H29.2148ZM39.0223 3.49408H41.4068C45.3816 3.49408 47.5108 6.11376 47.5108 10.0018C47.5108 13.8898 45.3816 16.5077 41.4068 16.5077H39.0223V3.49232V3.49408ZM35.0475 0.280869V19.7174H41.1233C47.4544 19.7174 51.6 16.3098 51.6 10C51.6 3.69016 47.5689 0.280869 41.236 0.280869H35.0457H35.0475ZM7.83686 0C3.60672 0 0.311713 2.39357 0.311713 5.74633C0.311713 8.4508 2.18552 10.2809 5.73412 11.0987L8.772 11.8036C11.2992 12.3953 12.5478 13.0154 12.5478 14.3667C12.5478 15.9159 10.873 16.7886 8.74382 16.7886C6.21666 16.7886 4.34285 15.1828 4.11567 12.8741H0C0.369829 16.225 3.32142 20 8.57476 20C13.0039 20 16.5807 17.6047 16.5807 14.0558C16.5807 11.2948 14.8495 9.18212 11.072 8.30949L8.0341 7.60466C5.47876 7.0129 4.39921 6.59071 4.39921 5.40717C4.39921 4.05405 5.875 3.20968 7.8351 3.20968C9.42537 3.20968 11.5827 3.74492 11.8381 6.05547H16.1228C15.7829 2.70447 12.9476 0 7.83686 0Z" fill="#121010"/>
</svg>
