<svg width="108" height="34" viewBox="0 0 108 34" fill="none" xmlns="http://www.w3.org/2000/svg">
<path d="M14.3906 16.375L22 16.375L22 17.625L14.3906 17.625L17.8906 21.125L17 22L12 17L17 12L17.8906 12.875L14.3906 16.375Z" fill="#FDFEFF"/>
<path d="M66.0527 22C65.0271 22 64.2166 21.6658 63.6214 20.9973C63.0261 20.3196 62.7285 19.3443 62.7285 18.0714V15.9286C62.7285 14.6923 63.0261 13.7308 63.6214 13.044C64.2258 12.348 65.0545 12 66.1076 12C66.8402 12 67.4584 12.1557 67.962 12.467C68.4657 12.7784 68.8457 13.1996 69.1021 13.7308C69.3586 14.2527 69.4868 14.8388 69.4868 15.489V15.6538H68.3329V15.489C68.3329 15.0678 68.2551 14.674 68.0994 14.3077C67.9529 13.9414 67.7148 13.6438 67.3851 13.4148C67.0554 13.1859 66.6296 13.0714 66.1076 13.0714C65.3659 13.0714 64.8073 13.3416 64.4318 13.8819C64.0655 14.4222 63.8824 15.1319 63.8824 16.011V17.989C63.8824 18.9231 64.0701 19.6465 64.4455 20.1593C64.821 20.6722 65.3842 20.9286 66.1351 20.9286C66.8128 20.9286 67.3485 20.7088 67.7423 20.2692C68.136 19.8205 68.3329 19.207 68.3329 18.4286V18.2637H65.201V17.1923H69.4868V21.8077H68.4153V20.6538H68.2505C68.104 21.0476 67.8292 21.3727 67.4263 21.6291C67.0325 21.8764 66.5747 22 66.0527 22Z" fill="#FDFEFF"/>
<path d="M53.9883 21.8078L56.9004 12.1924H59.0707L61.9828 21.8078H60.7465L60.046 19.4177H55.9251L55.2245 21.8078H53.9883ZM56.241 18.3462H59.73L58.068 12.6869H57.9031L56.241 18.3462Z" fill="#FDFEFF"/>
<path d="M46.8135 21.8078V12.1924H50.2475C50.9069 12.1924 51.4518 12.316 51.8822 12.5633C52.3217 12.8014 52.6468 13.1173 52.8574 13.5111C53.0772 13.9048 53.1871 14.3352 53.1871 14.8023V15.2144C53.1871 15.5715 53.0864 15.9286 52.8849 16.2858C52.6926 16.6429 52.3904 16.9177 51.9783 17.11V17.2748C52.253 17.3114 52.4682 17.4213 52.6239 17.6045C52.7796 17.7785 52.8574 18.0257 52.8574 18.3462V21.8078H51.7036V18.5935C51.7036 18.3554 51.6486 18.1722 51.5388 18.044C51.4289 17.9158 51.2366 17.8517 50.9618 17.8517H47.9673V21.8078H46.8135ZM47.9673 16.7803H50.1102C51.3922 16.7803 52.0333 16.2308 52.0333 15.1319V14.8847C52.0333 14.3993 51.873 14.0101 51.5525 13.7171C51.2411 13.4149 50.7604 13.2638 50.1102 13.2638H47.9673V16.7803Z" fill="#FDFEFF"/>
<path d="M38.5127 21.8078V20.7226H39.3369V13.2638H38.5127V12.1924H41.672C42.8534 12.1924 43.7187 12.4808 44.2682 13.0578C44.8268 13.6255 45.1061 14.5275 45.1061 15.7638V18.2363C45.1061 19.4726 44.8268 20.3792 44.2682 20.9561C43.7187 21.5239 42.8534 21.8078 41.672 21.8078H38.5127ZM40.4907 20.7363H41.5072C42.0658 20.7363 42.5237 20.6631 42.8808 20.5166C43.2471 20.3609 43.5173 20.0953 43.6913 19.7199C43.8653 19.3444 43.9523 18.8224 43.9523 18.1539V15.8462C43.9523 15.1777 43.8653 14.6558 43.6913 14.2803C43.5173 13.9048 43.2471 13.6438 42.8808 13.4973C42.5237 13.3417 42.0658 13.2638 41.5072 13.2638H40.4907V20.7363Z" fill="#FDFEFF"/>
<path d="M93.6094 17.625H86V16.375H93.6094L90.1094 12.875L91 12L96 17L91 22L90.1094 21.125L93.6094 17.625Z" fill="#FDFEFF"/>
</svg>
